<?xml version="1.0" encoding="utf-8"?>
<!-- Generator: Adobe Illustrator 27.0.0, SVG Export Plug-In . SVG Version: 6.00 Build 0)  -->
<svg version="1.1" id="Layer_1" xmlns="http://www.w3.org/2000/svg" xmlns:xlink="http://www.w3.org/1999/xlink" x="0px" y="0px"
	 viewBox="0 0 481.8 141.3" style="enable-background:new 0 0 481.8 141.3;" xml:space="preserve">
<style type="text/css">
	.st0{fill:#09AB68;}
	.st1{fill:#FFFFFF;}
</style>
<g>
	<g>
		<path class="st0" d="M143.8,18.9c-1.1-7.3-6.8-13-14.1-14.1c-12.3-1.8-29.7-2.7-47.2-2.7c-32,0-64,3-64,9c-6,0-9,32-9,64
			c0,17.4,0.9,34.8,2.7,47c1.1,7.4,6.9,13.2,14.3,14.3c12.3,1.8,29.6,2.7,47,2.7c32,0,64-3,64-9c6,0,9-32,9-64
			C146.5,48.7,145.6,31.2,143.8,18.9z"/>
		<path class="st1" d="M103.1,43.4v32c0,9.2-4.5,11.9-9.7,11.9c-5.2,0-9.4-2.6-9.6-9.9c3.9-3.3,5.9-8.2,5.9-14.6
			c0-12.6-7.7-19.4-21.8-19.4H40.2v52.9h12.5V82.1h15.1c1.3,0,2.5-0.1,3.7-0.2C73.3,93.8,81.9,98,93.1,98c14,0,22.5-6.2,22.5-23.2
			V43.4H103.1z M67,71.5H52.8V53.9H67c6.2,0,10,3,10,8.9C77.1,68.6,73.2,71.5,67,71.5z"/>
	</g>
	<g>
		<g>
			<path class="st1" d="M178,12.7h24.8c4.1,0,7.5,0.6,10.1,1.8c5,2.3,7.6,6.6,7.6,12.9c0,3.3-0.7,5.9-2,8c-1.4,2.1-3.2,3.8-5.7,5
				c2.1,0.9,3.7,2,4.8,3.4c1.1,1.4,1.7,3.7,1.8,6.9l0.3,7.3c0.1,2.1,0.2,3.6,0.5,4.6c0.4,1.7,1.2,2.8,2.4,3.3v1.2h-9.1
				c-0.2-0.5-0.4-1.1-0.6-1.8c-0.1-0.7-0.3-2.2-0.4-4.3L212,52c-0.2-3.6-1.5-6-3.9-7.2c-1.4-0.7-3.5-1-6.5-1h-16.4v23.4H178V12.7z
				 M202,37.7c3.4,0,6-0.7,8-2.1c2-1.4,2.9-3.9,2.9-7.5c0-3.9-1.4-6.5-4.1-8c-1.5-0.7-3.4-1.1-5.9-1.1h-17.6v18.7H202z"/>
			<path class="st1" d="M260,31.4c3.5,3.4,5.3,8.4,5.3,15.1c0,6.4-1.6,11.7-4.6,15.9c-3.1,4.2-7.9,6.3-14.4,6.3
				c-5.4,0-9.8-1.8-13-5.5c-3.2-3.7-4.8-8.7-4.8-14.9c0-6.7,1.7-12,5.1-16c3.4-4,7.9-5.9,13.6-5.9C252.2,26.3,256.5,28,260,31.4z
				 M255.8,57.9c1.6-3.4,2.4-7.1,2.4-11.2c0-3.7-0.6-6.7-1.8-9.1c-1.9-3.7-5.1-5.5-9.6-5.5c-4,0-7,1.6-8.8,4.7
				c-1.8,3.1-2.8,6.9-2.8,11.3c0,4.2,0.9,7.8,2.8,10.6s4.8,4.2,8.7,4.2C251.2,62.9,254.2,61.2,255.8,57.9z"/>
			<path class="st1" d="M269.7,27.4h8.7l9.1,14l9.3-14l8.1,0.2l-13.4,19.2l14,20.4h-8.5L287,52.3l-9.6,14.9H269l14-20.4L269.7,27.4z
				"/>
			<path class="st1" d="M332.8,43.1c1.5-0.2,2.6-0.8,3.1-1.9c0.3-0.6,0.4-1.5,0.4-2.6c0-2.3-0.8-3.9-2.4-5c-1.6-1-3.9-1.5-7-1.5
				c-3.5,0-6,0.9-7.4,2.8c-0.8,1-1.3,2.6-1.6,4.7h-6.2c0.1-4.9,1.7-8.3,4.8-10.3c3.1-1.9,6.6-2.9,10.6-2.9c4.7,0,8.5,0.9,11.4,2.7
				c2.9,1.8,4.3,4.6,4.3,8.3v22.9c0,0.7,0.1,1.3,0.4,1.7c0.3,0.4,0.9,0.6,1.8,0.6c0.3,0,0.6,0,1-0.1s0.8-0.1,1.2-0.2v4.9
				c-1,0.3-1.8,0.5-2.4,0.6s-1.3,0.1-2.2,0.1c-2.3,0-4-0.8-5-2.5c-0.5-0.9-0.9-2.1-1.2-3.7c-1.4,1.8-3.3,3.3-5.9,4.6
				c-2.6,1.3-5.4,2-8.4,2c-3.7,0-6.7-1.1-9-3.4c-2.3-2.2-3.5-5-3.5-8.4c0-3.7,1.2-6.5,3.5-8.6c2.3-2,5.3-3.3,9.1-3.7L332.8,43.1z
				 M318.8,61.2c1.4,1.1,3.1,1.7,5,1.7c2.4,0,4.6-0.5,6.8-1.6c3.7-1.8,5.6-4.8,5.6-8.9V47c-0.8,0.5-1.9,1-3.2,1.3s-2.5,0.6-3.8,0.7
				l-4,0.5c-2.4,0.3-4.2,0.8-5.5,1.5c-2.1,1.2-3.1,3-3.1,5.6C316.6,58.6,317.3,60.1,318.8,61.2z"/>
			<path class="st1" d="M353.8,27.4h6.4v5.6c1.9-2.3,3.9-4,6-5c2.1-1,4.4-1.5,7-1.5c5.6,0,9.5,2,11.4,5.9c1.1,2.2,1.6,5.2,1.6,9.3
				v25.5h-6.8V42.2c0-2.4-0.4-4.4-1.1-5.9c-1.2-2.5-3.3-3.7-6.5-3.7c-1.6,0-2.9,0.2-3.9,0.5c-1.8,0.5-3.4,1.6-4.8,3.3
				c-1.1,1.3-1.8,2.7-2.2,4.1c-0.3,1.4-0.5,3.4-0.5,6v20.8h-6.7V27.4z"/>
			<path class="st1" d="M396.2,27.4h6.4v5.6c1.9-2.3,3.9-4,6-5c2.1-1,4.4-1.5,7-1.5c5.6,0,9.5,2,11.4,5.9c1.1,2.2,1.6,5.2,1.6,9.3
				v25.5h-6.8V42.2c0-2.4-0.4-4.4-1.1-5.9c-1.2-2.5-3.3-3.7-6.5-3.7c-1.6,0-2.9,0.2-3.9,0.5c-1.8,0.5-3.4,1.6-4.8,3.3
				c-1.1,1.3-1.8,2.7-2.2,4.1c-0.3,1.4-0.5,3.4-0.5,6v20.8h-6.7V27.4z"/>
			<path class="st1" d="M463.1,28.5c2.6,1.3,4.6,3,6,5.1c1.3,2,2.2,4.3,2.7,7c0.4,1.8,0.6,4.8,0.6,8.8h-28.9c0.1,4,1.1,7.3,2.8,9.7
				c1.8,2.4,4.5,3.7,8.2,3.7c3.5,0,6.2-1.2,8.3-3.5c1.2-1.3,2-2.9,2.5-4.7h6.6c-0.2,1.5-0.7,3.1-1.7,4.9s-2.1,3.3-3.3,4.4
				c-2,2-4.5,3.3-7.5,4c-1.6,0.4-3.4,0.6-5.4,0.6c-4.9,0-9.1-1.8-12.5-5.4c-3.4-3.6-5.1-8.7-5.1-15.1c0-6.4,1.7-11.6,5.2-15.6
				c3.4-4,8-6,13.5-6C457.7,26.5,460.4,27.2,463.1,28.5z M465.4,44.2c-0.3-2.9-0.9-5.2-1.9-6.9c-1.8-3.2-4.9-4.8-9.1-4.8
				c-3,0-5.6,1.1-7.7,3.3c-2.1,2.2-3.2,5-3.3,8.5H465.4z"/>
			<path class="st1" d="M203.9,111c0,4.6-0.7,8.2-2,10.7c-2.5,4.7-7.3,7-14.4,7c-4.1,0-7.6-1.1-10.5-3.3c-2.9-2.2-4.4-6.2-4.4-11.8
				v-3.9h6.9v3.9c0,3,0.7,5.2,2,6.7c1.3,1.5,3.4,2.2,6.2,2.2c3.9,0,6.5-1.3,7.7-4c0.7-1.7,1.1-4.8,1.1-9.4V72.7h7.3V111z"/>
			<path class="st1" d="M243.1,91.4c3.5,3.4,5.3,8.4,5.3,15.1c0,6.4-1.6,11.7-4.6,15.9c-3.1,4.2-7.9,6.3-14.4,6.3
				c-5.4,0-9.8-1.8-13-5.5c-3.2-3.7-4.8-8.7-4.8-14.9c0-6.7,1.7-12,5.1-16c3.4-4,7.9-5.9,13.6-5.9C235.3,86.3,239.6,88,243.1,91.4z
				 M238.9,117.9c1.6-3.4,2.4-7.1,2.4-11.2c0-3.7-0.6-6.7-1.8-9.1c-1.9-3.7-5.1-5.5-9.6-5.5c-4,0-7,1.6-8.8,4.7
				c-1.8,3.1-2.8,6.9-2.8,11.3c0,4.2,0.9,7.8,2.8,10.6s4.8,4.2,8.7,4.2C234.3,122.9,237.3,121.2,238.9,117.9z"/>
			<path class="st1" d="M256.6,72.7h6.8v7.6h-6.8V72.7z M256.6,87.6h6.8v39.6h-6.8V87.6z"/>
			<path class="st1" d="M273.5,87.4h6.4v5.6c1.9-2.3,3.9-4,6-5c2.1-1,4.4-1.5,7-1.5c5.6,0,9.5,2,11.4,5.9c1.1,2.2,1.6,5.2,1.6,9.3
				v25.5h-6.8v-25.1c0-2.4-0.4-4.4-1.1-5.9c-1.2-2.5-3.3-3.7-6.5-3.7c-1.6,0-2.9,0.2-3.9,0.5c-1.8,0.5-3.4,1.6-4.8,3.3
				c-1.1,1.3-1.8,2.7-2.2,4.1c-0.3,1.4-0.5,3.4-0.5,6v20.8h-6.7V87.4z"/>
			<path class="st1" d="M340.4,88.5c2.6,1.3,4.6,3,6,5.1c1.3,2,2.2,4.3,2.7,7c0.4,1.8,0.6,4.8,0.6,8.8h-28.9c0.1,4,1.1,7.3,2.8,9.7
				c1.8,2.4,4.5,3.7,8.2,3.7c3.5,0,6.2-1.2,8.3-3.5c1.2-1.3,2-2.9,2.5-4.7h6.6c-0.2,1.5-0.8,3.1-1.7,4.9s-2.1,3.3-3.3,4.4
				c-2,2-4.5,3.3-7.5,4c-1.6,0.4-3.4,0.6-5.4,0.6c-4.9,0-9.1-1.8-12.5-5.4s-5.1-8.7-5.1-15.1c0-6.4,1.7-11.6,5.2-15.6
				c3.4-4,8-6,13.5-6C335,86.5,337.7,87.2,340.4,88.5z M342.8,104.2c-0.3-2.9-0.9-5.2-1.9-6.9c-1.8-3.2-4.9-4.8-9.1-4.8
				c-3,0-5.6,1.1-7.7,3.3c-2.1,2.2-3.2,5-3.3,8.5H342.8z"/>
			<path class="st1" d="M358.3,87.4h6.4v6.9c0.5-1.3,1.8-3,3.8-4.9c2-1.9,4.4-2.9,7-2.9c0.1,0,0.3,0,0.6,0c0.3,0,0.8,0.1,1.5,0.1
				v7.1c-0.4-0.1-0.8-0.1-1.1-0.1c-0.3,0-0.7,0-1.1,0c-3.4,0-6,1.1-7.8,3.3c-1.8,2.2-2.7,4.7-2.7,7.5v22.9h-6.7V87.4z"/>
			<path class="st1" d="M380.9,119.1h7.8v8.1h-7.8V119.1z"/>
		</g>
	</g>
	<g>
		<g>
			<path class="st0" d="M83.3,12c1.9,0,1.9-3,0-3C81.3,9,81.3,12,83.3,12L83.3,12z"/>
		</g>
	</g>
</g>
</svg>
